<svg id="Layer_1" data-name="Layer 1" xmlns="http://www.w3.org/2000/svg" viewBox="0 0 16 16.49"><defs><style>.cls-1{fill:#ffe599;}.cls-2{fill:#382c25;}</style></defs><rect class="cls-1" width="16" height="16"/><path class="cls-2" d="M5,.4A18.52,18.52,0,0,1,8.45.08a6,6,0,0,1,4.3,1.38A4.27,4.27,0,0,1,14,4.65,4.57,4.57,0,0,1,12.87,7.9,6.22,6.22,0,0,1,8.09,9.72a7.13,7.13,0,0,1-2-.19v7H5ZM6.12,8.52a7.4,7.4,0,0,0,2.06.23c2.92,0,4.66-1.41,4.66-4S11,1.05,8.4,1.05a11.89,11.89,0,0,0-2.28.19Z" transform="translate(0 0)"/></svg>