<svg id="Layer_1" data-name="Layer 1" xmlns="http://www.w3.org/2000/svg" viewBox="0 0 16 16"><defs><style>.cls-1{fill:#ffe599;}.cls-2{fill:#382c25;}</style></defs><rect class="cls-1" width="16" height="16"/><path class="cls-2" d="M3.59,4.49c0-.32,0-.58,0-.82h.25l0,.49h0a1,1,0,0,1,.94-.55A1.16,1.16,0,0,1,5.87,4.9c0,.92-.54,1.38-1.16,1.38a1,1,0,0,1-.86-.47h0V7.27H3.59Zm.25.73a1.36,1.36,0,0,0,0,.2.86.86,0,0,0,.84.65c.58,0,.92-.48.92-1.16a1,1,0,0,0-.9-1.09.89.89,0,0,0-.84.68.85.85,0,0,0,0,.22Z" transform="translate(0 0)"/><path class="cls-2" d="M6.2,2.45h.26V6.22H6.2Z" transform="translate(0 0)"/><path class="cls-2" d="M8.4,6.22l0-.36h0a1,1,0,0,1-.81.42.7.7,0,0,1-.75-.7c0-.59.52-.94,1.55-.93V4.58c0-.25,0-.76-.65-.75A1.14,1.14,0,0,0,7.05,4L7,3.83a1.47,1.47,0,0,1,.75-.22c.74,0,.88.56.88,1v1a4,4,0,0,0,0,.6ZM8.34,4.86c-.55,0-1.28.07-1.28.68a.49.49,0,0,0,.5.53.77.77,0,0,0,.76-.51.44.44,0,0,0,0-.15Z" transform="translate(0 0)"/><path class="cls-2" d="M9.11,4.28c0-.23,0-.41,0-.61h.23l0,.46h0a1,1,0,0,1,.88-.52c.24,0,.89.13.89,1.08V6.22h-.26V4.72c0-.47-.17-.89-.7-.89a.83.83,0,0,0-.77.59,1.3,1.3,0,0,0,0,.22V6.22H9.11Z" transform="translate(0 0)"/><path class="cls-2" d="M12,2.93v.74h.72v.21H12V5.53c0,.33.1.53.37.53a1,1,0,0,0,.29,0l0,.2a1,1,0,0,1-.35.06.54.54,0,0,1-.44-.18,1,1,0,0,1-.16-.61V3.88h-.43V3.67h.43V3Z" transform="translate(0 0)"/><path class="cls-2" d="M1.58,6.36h.25V8.18h0c.1-.14.21-.27.3-.38L3.42,6.36h.31L2.37,7.88,3.86,9.94h-.3L2.2,8.06l-.37.4V9.94H1.58Z" transform="translate(0 0)"/><path class="cls-2" d="M4,8.64c0,.82.44,1.14,1,1.14a1.52,1.52,0,0,0,.71-.14l.06.19a1.57,1.57,0,0,1-.8.17A1.17,1.17,0,0,1,3.75,8.72c0-.85.49-1.39,1.15-1.39a1,1,0,0,1,1,1.16.62.62,0,0,1,0,.15Zm1.63-.2a.8.8,0,0,0-.77-.9.92.92,0,0,0-.85.9Z" transform="translate(0 0)"/><path class="cls-2" d="M6.22,8.21c0-.32,0-.57,0-.82h.24l0,.49h0a1,1,0,0,1,.94-.55,1.17,1.17,0,0,1,1.1,1.3A1.21,1.21,0,0,1,7.35,10a1,1,0,0,1-.87-.47h0V11H6.22Zm.25.73a.64.64,0,0,0,0,.2.84.84,0,0,0,.83.65c.59,0,.92-.47.92-1.15s-.32-1.1-.9-1.1a.89.89,0,0,0-.84.68.85.85,0,0,0,0,.22Z" transform="translate(0 0)"/><path class="cls-2" d="M8.84,8.21c0-.32,0-.57,0-.82h.24l0,.49h0A1,1,0,0,1,10,7.33a1.16,1.16,0,0,1,1.09,1.3c0,.91-.54,1.37-1.16,1.37a1,1,0,0,1-.86-.47h0V11H8.84Zm.25.73a1.23,1.23,0,0,0,0,.2.85.85,0,0,0,.84.65c.59,0,.92-.47.92-1.15s-.32-1.1-.9-1.1a.89.89,0,0,0-.84.68.85.85,0,0,0,0,.22Z" transform="translate(0 0)"/><path class="cls-2" d="M11.49,8.64c0,.82.45,1.14,1,1.14a1.49,1.49,0,0,0,.71-.14l.07.19a1.62,1.62,0,0,1-.81.17,1.17,1.17,0,0,1-1.19-1.28c0-.85.49-1.39,1.15-1.39a1,1,0,0,1,1,1.16.62.62,0,0,1,0,.15Zm1.63-.2c0-.35-.14-.9-.76-.9a.9.9,0,0,0-.85.9Z" transform="translate(0 0)"/><path class="cls-2" d="M13.71,8.16c0-.26,0-.52,0-.77h.23l0,.52h0a.79.79,0,0,1,.72-.58l.11,0v.24h-.12a.73.73,0,0,0-.67.71,1,1,0,0,0,0,.25v1.4h-.25Z" transform="translate(0 0)"/></svg>